<svg width="1920" height="481" viewBox="0 0 1920 481" fill="none" xmlns="http://www.w3.org/2000/svg">
<g clip-path="url(#clip0_900_10156)">
<rect width="1920" height="480" transform="translate(0 0.714844)" fill="url(#paint0_linear_900_10156)"/>
<path fill-rule="evenodd" clip-rule="evenodd" d="M1887.33 355.685C1764.32 412.952 1612.32 405.356 1536.29 390.292L1559.12 275.071C1622.5 287.628 1746.23 291.806 1837.76 249.198L1887.33 355.685Z" fill="url(#paint1_linear_900_10156)" fill-opacity="0.77"/>
<circle cx="1545.61" cy="333.538" r="60.5585" transform="rotate(-178.028 1545.61 333.538)" fill="#DF1995"/>
<g style="mix-blend-mode:soft-light">
<path fill-rule="evenodd" clip-rule="evenodd" d="M2061.5 89.1415C1235.42 939.546 256.378 839.944 -155.175 665.641L-2.09772 263.948C282.382 384.432 1073.59 485.081 1760.25 -221.809L2061.5 89.1415Z" fill="url(#paint2_linear_900_10156)" fill-opacity="0.35"/>
</g>
<path fill-rule="evenodd" clip-rule="evenodd" d="M351.127 151.881C305.557 154.026 255.819 144.365 198.704 123.724C159.744 109.644 113.554 108.79 73.1601 117.407C31.5056 126.292 2.44549 143.735 -8.17513 159.853L-49.9756 132.308C-28.566 99.8177 16.3292 78.3435 62.7165 68.4483C110.365 58.2841 166.303 58.7857 215.719 76.6443C269.074 95.9265 311.963 103.609 348.773 101.876C385.135 100.164 416.964 89.2032 448.348 68.8942L475.545 110.922C437.447 135.576 397.144 149.714 351.127 151.881Z" fill="url(#paint3_linear_900_10156)"/>
<circle cx="462.14" cy="89.8054" r="25.03" fill="#FC774A"/>
<circle cx="1348.14" cy="125.136" r="11.1362" fill="#DF1995"/>
<rect x="244" y="333.883" width="19.6341" height="19.6341" transform="rotate(-45 244 333.883)" fill="white"/>
</g>
<defs>
<linearGradient id="paint0_linear_900_10156" x1="960" y1="0" x2="960" y2="480" gradientUnits="userSpaceOnUse">
<stop offset="0.338021" stop-color="#1A2A54"/>
<stop offset="1" stop-color="#061742"/>
</linearGradient>
<linearGradient id="paint1_linear_900_10156" x1="1684.37" y1="200.823" x2="1582.66" y2="348.786" gradientUnits="userSpaceOnUse">
<stop stop-color="#E2248C" stop-opacity="0"/>
<stop offset="1" stop-color="#DF1995"/>
</linearGradient>
<linearGradient id="paint2_linear_900_10156" x1="-144.688" y1="698.678" x2="1859.28" y2="10.4434" gradientUnits="userSpaceOnUse">
<stop offset="0.584493" stop-color="#D8E6FF"/>
<stop offset="1" stop-color="#828A99" stop-opacity="0"/>
</linearGradient>
<linearGradient id="paint3_linear_900_10156" x1="11.2892" y1="136.291" x2="440.824" y2="92.7716" gradientUnits="userSpaceOnUse">
<stop offset="0.219187" stop-color="#FC774A"/>
<stop offset="1" stop-color="#FC774A" stop-opacity="0.1"/>
</linearGradient>
<clipPath id="clip0_900_10156">
<rect width="1920" height="480" fill="white" transform="translate(0 0.714844)"/>
</clipPath>
</defs>
</svg>
